<?xml version="1.0"?>
<svg width="480" height="340" xmlns="http://www.w3.org/2000/svg" xmlns:svg="http://www.w3.org/2000/svg" preserveAspectRatio="none meet">
 <title>speech bubble left</title>
 <g>
  <title>Layer 1</title>
  <path fill="white" stroke-width="3.5" stroke="#000000" id="path575" d="m39.462189,8.9933c-17.443798,0 -31.487049,13.329759 -31.487049,29.88741l0,179.013393c0,16.557648 14.043251,29.887482 31.487049,29.887482l99.842117,0l31.522903,0.444855l32.178223,-0.444855l235.825226,0c17.443878,0 31.48703,-13.329834 31.48703,-29.887482l0,-179.013393c0,-16.557653 -14.043152,-29.88741 -31.48703,-29.88741l-399.368469,0z"/>
  <ellipse fill="white" stroke-width="3.5" stroke-dasharray="null" stroke-linejoin="null" stroke-linecap="null" cx="164" cy="270.5" id="svg_1" rx="40.000002" ry="11.5" stroke="#000000"/>
  <ellipse fill="white" stroke-width="3.5" stroke-dasharray="null" stroke-linejoin="null" stroke-linecap="null" cx="131" cy="275" id="svg_3" ry="2" stroke="#000000"/>
  <ellipse fill="white" stroke="#000000" stroke-width="3.5" stroke-dasharray="null" stroke-linejoin="null" stroke-linecap="null" cx="126" cy="277" id="svg_4" ry="3" transform="rotate(6.581944465637207 125.99999999999946,277.00000000000006) "/>
  <ellipse stroke="#000000" fill="white" stroke-width="3.5" stroke-dasharray="null" stroke-linejoin="null" stroke-linecap="null" cx="103.500001" cy="300" id="svg_5" rx="28.499999" ry="10"/>
  <ellipse fill="white" stroke-width="3.5" stroke-dasharray="null" stroke-linejoin="null" stroke-linecap="null" cx="95.5" cy="311" id="svg_8" rx="0.5" stroke="#000000"/>
  <ellipse stroke="#000000" fill="white" stroke-width="3.5" stroke-dasharray="null" stroke-linejoin="null" stroke-linecap="null" cx="50" cy="323.5" id="svg_9" rx="18" ry="6.5"/>
 </g>
</svg>